<svg xmlns="http://www.w3.org/2000/svg" viewBox="0 0 700 330" role="img" aria-labelledby="title desc">
  <title id="title">Mail Boxes Etc. #PeoplePossible</title>
  <desc id="desc">Black Mail Boxes Etc. logo with the PeoplePossible tagline.</desc>
  <defs>
    <clipPath id="roundel">
      <circle cx="350" cy="95" r="82"/>
    </clipPath>
  </defs>

  <g clip-path="url(#roundel)" fill="#050505">
    <rect x="300" y="20" width="100" height="9" rx="4.5"/>
    <rect x="281" y="35" width="138" height="9" rx="4.5"/>
    <rect x="270" y="50" width="160" height="9" rx="4.5"/>
    <rect x="264" y="65" width="172" height="9" rx="4.5"/>
    <rect x="260" y="80" width="180" height="9" rx="4.5"/>
    <rect x="260" y="95" width="180" height="9" rx="4.5"/>
    <rect x="264" y="110" width="172" height="9" rx="4.5"/>
    <rect x="270" y="125" width="160" height="9" rx="4.5"/>
    <rect x="281" y="140" width="138" height="9" rx="4.5"/>
    <rect x="300" y="155" width="100" height="9" rx="4.5"/>
  </g>

  <rect x="271" y="66" width="158" height="58" rx="5" fill="#fff"/>
  <text x="350" y="112" text-anchor="middle" font-family="Arial Black, Arial, Helvetica, sans-serif" font-size="57" font-weight="900" letter-spacing="-5" fill="#050505">MBE</text>

  <text x="350" y="238" text-anchor="middle" font-family="Arial Black, Arial, Helvetica, sans-serif" font-size="56" font-weight="900" letter-spacing="1" fill="#050505">MAIL BOXES ETC.</text>

  <text x="350" y="292" text-anchor="middle" font-family="Arial, Helvetica, sans-serif" font-size="31" font-weight="500">
    <tspan fill="#e31b23">#</tspan><tspan fill="#111111">PeoplePossible</tspan>
  </text>
</svg>
